<?xml version="1.0" encoding="iso-8859-1"?>
<!-- Generator: Adobe Illustrator 19.0.0, SVG Export Plug-In . SVG Version: 6.00 Build 0)  -->
<svg version="1.1" id="Capa_1" xmlns="http://www.w3.org/2000/svg" xmlns:xlink="http://www.w3.org/1999/xlink" x="0px" y="0px"
	 viewBox="0 0 512.001 512.001" style="enable-background:new 0 0 512.001 512.001;" xml:space="preserve">
<g>
	<g>
		<g>
			<path d="M478.515,170.897C495.182,137.811,512,97.375,512,77.017c0.012-42.456-34.344-76.909-76.8-77.017
				c-42.456,0.107-76.812,34.561-76.8,77.017c0,20.358,16.819,60.797,33.485,93.88c-15.405,5.749-27.323,18.244-32.339,33.903
				h-1.146c-4.713,0-8.533,3.821-8.533,8.533c0,4.713,3.82,8.533,8.533,8.533h1.109c5.941,24.498,37.007,42.667,75.691,42.667
				c43.067,0,76.8-22.492,76.8-51.2C512,196.005,499.393,180.313,478.515,170.897z M375.467,77.017
				c-0.022-33.034,26.7-59.852,59.733-59.95c33.034,0.098,59.755,26.916,59.733,59.95c0,23.604-31.883,91.387-52.567,123.825
				c-1.622,2.364-4.305,3.777-7.172,3.776c-2.867-0.001-5.549-1.415-7.17-3.78C407.351,168.404,375.467,100.621,375.467,77.017z
				 M435.201,247.467c-32.375,0-59.733-15.629-59.733-34.133c0-10.469,9.353-20.751,24.324-27.274
				c5.063,9.393,9.862,17.703,13.843,23.949c4.683,7.383,12.818,11.858,21.561,11.858c8.743,0.001,16.879-4.472,21.564-11.854
				c3.983-6.247,8.784-14.56,13.848-23.954c14.973,6.523,24.327,16.805,24.327,27.275
				C494.934,231.838,467.576,247.467,435.201,247.467z"/>
			<path d="M477.867,76.8c0-23.564-19.103-42.667-42.667-42.667S392.534,53.236,392.534,76.8s19.103,42.667,42.667,42.667
				C458.753,119.439,477.84,100.353,477.867,76.8z M409.601,76.8c0-14.138,11.461-25.6,25.6-25.6s25.6,11.461,25.6,25.6
				s-11.462,25.6-25.6,25.6C421.068,102.385,409.616,90.932,409.601,76.8z"/>
			<path d="M179.201,247.467c0-37.703-30.564-68.267-68.267-68.267s-68.267,30.564-68.267,68.267s30.564,68.267,68.267,68.267
				C148.619,315.69,179.157,285.152,179.201,247.467z M59.734,247.467c0-28.277,22.923-51.2,51.2-51.2s51.2,22.923,51.2,51.2
				s-22.923,51.2-51.2,51.2C82.67,298.636,59.765,275.731,59.734,247.467z"/>
			<path d="M221.867,452.267h-0.934c-4.59-18.283-27.172-33.277-61.774-40.792c28.147-51.78,62.708-128.414,62.708-163.683
				c0.121-39.713-20.997-76.461-55.369-96.352c-34.372-19.891-76.756-19.891-111.128,0c-34.372,19.891-55.49,56.639-55.369,96.352
				c0,35.269,34.561,111.903,62.709,163.683c-38.914,8.452-62.709,26.349-62.709,47.759C0.001,489.317,47.692,512,110.934,512
				c55.93,0,99.632-17.755,109.004-42.667h1.929c4.713,0,8.533-3.82,8.533-8.533S226.58,452.267,221.867,452.267z M17.067,247.792
				c-0.031-51.907,41.96-94.043,93.867-94.192c51.906,0.148,93.898,42.285,93.867,94.192c0,36.129-48.233,138.971-79.508,188.025
				c-3.11,4.928-8.531,7.917-14.358,7.917c-5.828,0-11.248-2.989-14.358-7.917C65.3,386.763,17.067,283.921,17.067,247.792z
				 M110.934,494.934c-53.725,0-93.867-18.846-93.867-35.7c0-11.054,18.773-25.338,54.415-32.043
				c3.834,6.659,7.464,12.71,10.71,17.801c6.241,9.844,17.086,15.808,28.742,15.808c11.655,0,22.5-5.965,28.742-15.808
				c3.246-5.091,6.876-11.142,10.71-17.801c35.642,6.705,54.415,20.989,54.415,32.043
				C204.801,476.088,164.659,494.934,110.934,494.934z"/>
			<path d="M303.117,290.134c0-4.713-3.82-8.533-8.533-8.533h-8.717c-2.098,0.001-4.189-0.217-6.242-0.65
				c-2.214-0.475-4.527-0.05-6.427,1.183c-1.9,1.233-3.231,3.172-3.698,5.388c-0.976,4.61,1.967,9.139,6.575,10.121
				c3.219,0.683,6.501,1.026,9.792,1.025h8.717C299.297,298.667,303.117,294.846,303.117,290.134z"/>
			<path d="M453.258,297.283c1.5-4.435-0.854-9.25-5.275-10.791h0c-5.845-1.975-11.872-3.362-17.992-4.142
				c-3.028-0.39-6.033,0.867-7.882,3.296c-1.849,2.429-2.259,5.661-1.076,8.475s3.779,4.783,6.808,5.162
				c4.991,0.636,9.907,1.766,14.675,3.375C446.966,304.117,451.759,301.718,453.258,297.283z"/>
			<path d="M486.811,331.923c3.029-0.405,5.609-2.4,6.765-5.228c1.156-2.828,0.711-6.059-1.167-8.47
				c-3.763-4.87-7.991-9.362-12.625-13.412c-3.549-3.093-8.933-2.727-12.031,0.817c-3.098,3.544-2.741,8.928,0.798,12.033
				c3.803,3.319,7.272,7.002,10.358,10.996C480.768,331.083,483.782,332.329,486.811,331.923z"/>
			<path d="M353.509,290.134c0-4.713-3.82-8.533-8.533-8.533h-16.8c-4.713,0-8.533,3.82-8.533,8.533s3.82,8.533,8.533,8.533h16.8
				C349.688,298.667,353.509,294.846,353.509,290.134z"/>
			<path d="M508.767,351.079c-0.792-2.946-3.098-5.245-6.046-6.028c-2.948-0.784-6.091,0.067-8.241,2.231
				c-2.15,2.164-2.981,5.312-2.179,8.255c1.31,4.862,2.137,9.842,2.467,14.867c0.297,4.482,4.017,7.967,8.508,7.971
				c0.192,0,0.383-0.004,0.575-0.017c4.701-0.314,8.26-4.377,7.95-9.079C511.394,363.127,510.378,357.031,508.767,351.079z"/>
			<path d="M501.68,394.846c-4.455-1.53-9.307,0.841-10.837,5.296c-1.64,4.77-3.745,9.367-6.283,13.725
				c-2.363,4.072-0.982,9.288,3.087,11.658c4.068,2.37,9.287,0.998,11.663-3.066c3.101-5.326,5.669-10.945,7.667-16.775
				C508.506,401.229,506.135,396.376,501.68,394.846z"/>
			<path d="M272.251,452.267h-16.792c-4.713,0-8.533,3.821-8.533,8.533s3.82,8.533,8.533,8.533h16.792
				c4.713,0,8.533-3.82,8.533-8.533S276.963,452.267,272.251,452.267z"/>
			<path d="M422.884,452.121c-1.575,0.096-3.159,0.144-4.75,0.146h-11.517c-4.713,0-8.533,3.821-8.533,8.533s3.82,8.533,8.533,8.533
				h11.517c1.942,0,3.875-0.06,5.8-0.179c3.047-0.182,5.765-1.977,7.128-4.709c1.363-2.732,1.162-5.983-0.525-8.526
				C428.848,453.376,425.931,451.927,422.884,452.121z"/>
			<path d="M403.892,290.134c0-4.713-3.82-8.533-8.533-8.533h-16.8c-4.713,0-8.533,3.82-8.533,8.533s3.821,8.533,8.533,8.533h16.8
				C400.072,298.667,403.892,294.846,403.892,290.134z"/>
			<path d="M464.692,436.43c-4.004,3.071-8.3,5.742-12.825,7.975c-4.227,2.085-5.964,7.202-3.879,11.429
				c2.085,4.227,7.202,5.964,11.429,3.879c5.525-2.728,10.77-5.991,15.659-9.742c3.739-2.867,4.446-8.223,1.579-11.963
				C473.788,434.27,468.432,433.563,464.692,436.43z"/>
			<path d="M322.642,452.267h-16.8c-4.713,0-8.533,3.821-8.533,8.533s3.82,8.533,8.533,8.533h16.8c4.713,0,8.533-3.82,8.533-8.533
				S327.355,452.267,322.642,452.267z"/>
			<path d="M373.026,452.267h-16.8c-2.263-0.001-4.434,0.898-6.035,2.499c-1.6,1.6-2.499,3.771-2.499,6.035
				c-0.001,2.263,0.898,4.434,2.499,6.035c1.6,1.6,3.771,2.499,6.035,2.499h16.8c4.713,0,8.533-3.82,8.533-8.533
				S377.738,452.267,373.026,452.267z"/>
			<path d="M259.826,232.046c2.148,0.003,4.217-0.807,5.792-2.267c3.212-2.962,7.031-5.188,11.192-6.521
				c2.904-0.926,5.094-3.331,5.744-6.309s-0.338-6.077-2.592-8.129c-2.254-2.052-5.432-2.746-8.336-1.82
				c-6.54,2.094-12.544,5.591-17.592,10.246c-2.579,2.384-3.435,6.105-2.155,9.376S256.313,232.046,259.826,232.046z"/>
			<path d="M307.617,221.867h16.792c4.713,0,8.533-3.821,8.533-8.533c0-4.713-3.821-8.533-8.533-8.533h-16.792
				c-4.713,0-8.533,3.821-8.533,8.533C299.084,218.046,302.904,221.867,307.617,221.867z"/>
			<path d="M259.221,274.074c1.542-2.563,1.629-5.746,0.23-8.39c-2.046-3.861-3.212-8.127-3.417-12.492
				c-0.278-4.685-4.252-8.288-8.942-8.108c-4.707,0.233-8.335,4.234-8.108,8.942c0.322,6.864,2.161,13.572,5.383,19.642
				c1.481,2.796,4.386,4.544,7.55,4.542C254.908,278.206,257.679,276.637,259.221,274.074z"/>
		</g>
	</g>
</g>
<g>
</g>
<g>
</g>
<g>
</g>
<g>
</g>
<g>
</g>
<g>
</g>
<g>
</g>
<g>
</g>
<g>
</g>
<g>
</g>
<g>
</g>
<g>
</g>
<g>
</g>
<g>
</g>
<g>
</g>
</svg>
