<svg height="647pt" viewBox="-20 -24 647.99967 647" width="647pt" xmlns="http://www.w3.org/2000/svg"><path d="m443.535156 279.71875c-27.566406 0-49.917968-22.347656-49.917968-49.917969 0-27.566406 22.351562-49.917969 49.917968-49.917969 27.570313 0 49.917969 22.351563 49.917969 49.917969-.03125 27.558594-22.359375 49.886719-49.917969 49.917969zm0-79.867188c-16.539062 0-29.949218 13.410157-29.949218 29.949219 0 16.546875 13.410156 29.949219 29.949218 29.949219 16.546875 0 29.949219-13.402344 29.949219-29.949219 0-16.539062-13.402344-29.949219-29.949219-29.949219zm0 0"/><path d="m164 279.71875c-27.566406 0-49.917969-22.347656-49.917969-49.917969 0-27.566406 22.351563-49.917969 49.917969-49.917969 27.570312 0 49.917969 22.351563 49.917969 49.917969-.03125 27.558594-22.359375 49.886719-49.917969 49.917969zm0-79.867188c-16.539062 0-29.949219 13.410157-29.949219 29.949219 0 16.546875 13.410157 29.949219 29.949219 29.949219 16.546875 0 29.949219-13.402344 29.949219-29.949219 0-16.539062-13.402344-29.949219-29.949219-29.949219zm0 0"/><path d="m503.4375 344.035156 95.171875-86.515625c11.132813-10.363281 11.914063-27.742187 1.75-39.058593-10.164063-11.316407-27.523437-12.40625-39.015625-2.445313l-71.683594 63.703125h-100.769531l-75.140625 91.847656v-251.582031h99.835938v39.933594h164.496093l-23.957031-59.902344 23.957031-59.898437h-114.578125v-39.933594h-169.71875v371.382812l-75.132812-91.847656h-100.769532l-71.683593-63.714844c-11.5-9.980468-28.878907-8.898437-39.050781 2.425782-10.179688 11.328124-9.394532 28.71875 1.765624 39.089843l95.1875 86.515625v235.183594h-99.835937v19.96875h599.003906v-19.96875h-99.832031zm-39.933594-283.953125h85.085938l-15.96875 39.933594 15.96875 39.933594h-115.039063v-19.964844h29.953125zm-149.753906-39.933593h129.785156v79.867187h-129.785156zm-109.816406 559.070312h-29.949219v-139.765625h-19.96875v139.765625h-29.949219v-244.011719l-101.710937-92.425781c-2.863281-2.664062-3.371094-7.011719-1.207031-10.273438 1.265624-1.898437 3.289062-3.15625 5.550781-3.449218 2.261719-.296875 4.542969.402344 6.25 1.914062l77.34375 68.710938h98.894531l74.234375 90.734375c2.878906 3.4375 2.425781 8.554687-1.007813 11.4375-3.441406 2.875-8.5625 2.421875-11.4375-1.015625l-67.042968-78.191406zm179.703125 0h-159.734375v-202.660156l31.949218 37.238281c9.261719 10.789063 25.117188 12.957031 36.933594 5.050781.371094-.25.691406-.566406 1.054688-.839844v81.34375h19.964844v-81.324218c.375.285156.707031.621094 1.105468.882812 11.808594 7.851563 27.617188 5.675782 36.859375-5.082031l31.867188-37.269531zm99.832031 0h-29.949219v-139.765625h-19.96875v139.765625h-29.949219v-256.570312l-67.035156 78.222656c-2.683594 3.109375-7.269531 3.722656-10.671875 1.425781-1.90625-1.253906-3.1875-3.265625-3.515625-5.523437-.34375-2.261719.285156-4.5625 1.738282-6.328126l74.234374-90.761718h98.898438l77.328125-68.742188c1.695313-1.535156 3.988281-2.242187 6.25-1.925781 2.296875.289063 4.34375 1.574219 5.601563 3.515625 2.148437 3.246094 1.621093 7.574219-1.25 10.210938l-101.710938 92.464843zm0 0"/></svg>